<?xml version="1.0" encoding="utf-8"?>
<!-- Generator: Adobe Illustrator 27.1.1, SVG Export Plug-In . SVG Version: 6.00 Build 0)  -->
<svg version="1.1" id="Layer_1" xmlns="http://www.w3.org/2000/svg" xmlns:xlink="http://www.w3.org/1999/xlink" x="0px" y="0px"
	 viewBox="0 0 10 10" style="enable-background:new 0 0 10 10;" xml:space="preserve">
<g transform="translate(0.000000,1798.000000) scale(0.100000,-0.100000)">
	<path d="M58.05,17969.64c-0.2-0.12-1.74-1.67-2.39-2.4c-2.86-3.23-5.64-7.35-8.32-12.35c-0.45-0.84-1.99-3.94-2.4-4.84
		c-2.71-5.93-4.93-12.06-6.86-19.04c-0.22-0.77-0.4-1.41-0.41-1.42c-0.02-0.02-1.8,5.2-2.45,7.18c-0.73,2.24-0.92,2.95-1.12,4.29
		c-0.12,0.82-0.12,1.33,0,1.79c0.13,0.49,0.23,0.69,0.52,0.98c0.49,0.5,1.29,0.93,3.5,1.9c1.63,0.71,1.85,0.82,1.97,0.95
		c0.05,0.06,0.3,0.62,0.57,1.23c1.08,2.54,2.06,4.68,3.13,6.83c0.44,0.88,0.86,1.7,0.93,1.83c0.08,0.13,0.23,0.41,0.34,0.62
		c0.49,0.93,1.63,2.84,2.16,3.62c0.34,0.51,0.38,0.68,0.15,0.88c-0.16,0.15-0.37,0.11-1.26-0.28c-0.42-0.18-1.82-0.77-3.09-1.31
		c-1.28-0.54-2.85-1.21-3.49-1.48c-0.65-0.27-3.22-1.37-5.72-2.43c-2.5-1.06-4.75-2.01-4.99-2.12c-0.47-0.21-4.6-1.95-6.01-2.55
		c-0.46-0.19-1.31-0.55-1.88-0.79c-0.57-0.24-1.45-0.62-1.97-0.83c-1.93-0.81-2.99-1.26-3.87-1.63c-0.5-0.21-1.6-0.68-2.45-1.04
		c-0.85-0.36-1.6-0.7-1.66-0.76c-0.08-0.07-0.11-0.15-0.11-0.27c0-0.15,0.19-0.46,1.53-2.49c0.84-1.27,1.8-2.72,2.13-3.22
		c0.33-0.5,1.26-1.91,2.06-3.14c2.57-3.89,2.92-4.43,4.13-6.27c1.16-1.76,2.93-4.44,4.34-6.58c1.43-2.17,2.21-3.35,3.65-5.54
		c0.81-1.23,1.51-2.28,1.56-2.34c0.05-0.06,0.14-0.12,0.19-0.14c0.07-0.03,1.34,0.15,4.02,0.56c2.16,0.33,5.63,0.85,7.72,1.17
		c2.96,0.45,3.83,0.59,3.91,0.65c0.12,0.09,0.1,0.04,0.79,1.95c2.44,6.76,5.83,13.85,9.98,20.9c0.21,0.35,0.45,0.76,0.54,0.91
		c0.09,0.15,0.34,0.57,0.56,0.93c0.34,0.55,1.06,1.72,1.45,2.32c1.66,2.55,2.54,3.88,3.64,5.46c2.95,4.23,5.97,8.1,9.13,11.69
		c0.33,0.38,0.37,0.46,0.29,0.69c-0.07,0.19-0.02,0.17-1.81,0.92c-9.53,3.97-12.24,5.09-12.35,5.1
		C58.25,17969.72,58.14,17969.7,58.05,17969.64z M62.52,17967.58c8.78-3.65,9.51-3.96,9.57-3.99c0.05-0.03-0.07-0.19-0.51-0.7
		c-3.02-3.45-5.78-6.98-8.47-10.82c-7.46-10.66-12.96-21.04-16.74-31.55c-0.41-1.14-0.49-1.33-0.58-1.36
		c-0.05-0.02-2.14-0.34-4.63-0.71c-6.54-0.99-10.34-1.56-10.48-1.59c-0.11-0.02-0.15,0.03-0.7,0.87c-0.32,0.49-0.98,1.49-1.46,2.22
		c-0.48,0.73-3.15,4.79-5.95,9.03c-10.3,15.64-11.33,17.21-11.32,17.21c0,0.01,0.37,0.16,0.81,0.35c0.44,0.18,1.59,0.67,2.56,1.08
		c0.97,0.42,2.36,1,3.09,1.31c1.38,0.58,2.03,0.86,5.17,2.19c2.41,1.02,3.18,1.35,8.59,3.65c2.44,1.04,5.16,2.19,6.03,2.56
		s3.38,1.43,5.56,2.36c2.18,0.93,3.98,1.67,3.99,1.67c0.01-0.01-0.11-0.23-0.28-0.48c-1.84-2.77-4.05-7.11-6.35-12.45l-0.66-1.52
		l-0.43-0.21c-0.24-0.11-0.88-0.4-1.43-0.63c-2.76-1.19-3.63-1.75-4.02-2.56c-0.22-0.46-0.31-0.88-0.31-1.41
		c0-0.77,0.21-2.05,0.53-3.23c0.27-1.02,3.3-10.04,3.41-10.17c0.05-0.07,0.16-0.07,0.25-0.02c0.03,0.02,0.22,0.65,0.42,1.4
		c1.04,3.82,2.08,7.11,3.41,10.82c3.41,9.52,7.87,18.01,12.68,24.12c0.8,1.03,1.48,1.8,2.49,2.89c0.46,0.49,1.44,1.42,1.49,1.42
		C58.31,17969.33,60.21,17968.54,62.52,17967.58z"/>
	<path d="M75.57,17961.33c-3.88-3.92-7.75-8.48-11.08-13.05c-0.28-0.39-0.82-1.14-0.95-1.33c-0.08-0.12-0.24-0.35-0.35-0.51
		c-2.05-2.93-4.3-6.57-6.07-9.87c-0.65-1.2-1.74-3.36-2.18-4.31c-0.16-0.35-0.37-0.79-0.45-0.96c-0.41-0.88-1.16-2.65-1.64-3.83
		c-0.72-1.78-1.21-3.15-2.38-6.58c-0.3-0.86-0.33-1.08-0.19-1.24c0.14-0.17,0.18-0.16,3.72,0.38c4.57,0.7,5.83,0.89,11.05,1.68
		c2.43,0.37,5.26,0.79,6.3,0.95c3.99,0.61,8.03,1.21,8.33,1.26c0.33,0.05,0.8,0.12,1.72,0.26c0.32,0.05,0.68,0.1,0.8,0.12
		c0.12,0.01,0.25,0.03,0.29,0.04c0.07,0.01,0.35,0.06,0.57,0.09c0.06,0.01,0.24,0.04,0.4,0.06c0.16,0.02,0.38,0.06,0.49,0.07
		s0.23,0.04,0.27,0.04c0.04,0.01,0.17,0.03,0.29,0.04c0.12,0.01,0.29,0.04,0.38,0.05c0.46,0.07,0.81,0.12,0.85,0.13
		c0.02,0,0.07,0.01,0.11,0.01c0.18,0.01,0.34,0.22,0.53,0.68c0.1,0.25,0.5,1.21,0.88,2.13c1.67,4.01,1.86,4.51,1.87,4.65
		c0,0.11-0.03,0.18-0.11,0.27l-0.12,0.12l-13.35,0.02l-13.35,0.02l1.47,0.95c1.64,1.06,2.67,1.72,6.58,4.22
		c2.39,1.54,5.88,3.78,10.93,7.03c0.94,0.61,1.77,1.16,1.84,1.22c0.1,0.09,0.13,0.16,0.13,0.27c0,0.1-0.46,1.29-1.26,3.26
		c-0.69,1.71-1.47,3.62-1.72,4.24c-0.25,0.62-0.58,1.45-0.74,1.83c-0.98,2.4-1.22,2.99-1.82,4.51c-0.73,1.81-0.77,1.88-1.08,1.88
		C76.38,17962.13,76.3,17962.06,75.57,17961.33z M76.63,17961.57c0.04-0.09,0.31-0.77,0.61-1.52c0.3-0.74,0.65-1.62,0.79-1.94
		c0.13-0.33,0.39-0.96,0.57-1.41c0.18-0.45,0.76-1.88,1.29-3.18s1.06-2.62,1.19-2.94c0.13-0.31,0.55-1.37,0.95-2.33
		c0.39-0.96,0.71-1.77,0.71-1.79c0-0.03-0.16-0.15-0.36-0.28c-0.2-0.13-0.84-0.54-1.41-0.9c-0.57-0.37-1.47-0.95-1.99-1.28
		c-0.52-0.34-1.87-1.21-3-1.94c-1.13-0.73-2.43-1.57-2.89-1.86c-1.53-0.99-6.31-4.05-6.89-4.42c-4.6-2.95-4.82-3.09-4.83-3.22
		c-0.01-0.07,0.01-0.15,0.04-0.17c0.04-0.04,3.65-0.05,13.7-0.07l13.65-0.02l-0.26-0.62c-0.14-0.34-0.52-1.25-0.84-2.03
		c-1.26-3.06-1.81-4.37-1.83-4.39c-0.01-0.01-0.27-0.06-0.56-0.11c-1.14-0.17-8.26-1.25-9.93-1.49c-0.96-0.14-3.01-0.45-4.55-0.69
		c-1.54-0.23-3.93-0.59-5.3-0.8c-3.69-0.55-14.39-2.18-14.79-2.25l-0.14-0.03l0.17,0.5c2.13,6.27,3.33,9.23,5.47,13.51
		c4.48,8.97,10.58,17.58,17.98,25.42c0.97,1.02,2.33,2.42,2.37,2.42C76.54,17961.73,76.59,17961.66,76.63,17961.57z"/>
	<path d="M83.75,17921.5c0-0.01-0.1-0.02-0.21-0.04c-0.11-0.01-0.25-0.04-0.31-0.04c-0.06-0.01-0.2-0.03-0.31-0.04
		c-0.11-0.01-0.32-0.04-0.46-0.07c-0.15-0.02-0.35-0.05-0.46-0.07s-0.31-0.04-0.44-0.07c-0.31-0.05-0.46-0.07-0.71-0.11
		c-0.11-0.01-0.32-0.04-0.46-0.07c-0.15-0.02-0.35-0.05-0.46-0.07s-0.31-0.04-0.44-0.07s-0.31-0.05-0.4-0.07
		c-0.3-0.04-1.04-0.15-1.19-0.18c-0.08-0.01-0.69-0.1-1.35-0.2c-2.41-0.35-3.01-0.44-3.12-0.47c-0.06-0.01-0.19-0.03-0.29-0.04
		c-0.09-0.01-0.37-0.05-0.61-0.09c-0.24-0.04-0.5-0.08-0.57-0.09c-0.36-0.04-1.42-0.2-1.81-0.26c-0.24-0.04-0.9-0.14-1.46-0.22
		c-0.56-0.08-1.22-0.18-1.48-0.22c-0.26-0.04-0.86-0.13-1.35-0.2c-0.49-0.07-1.22-0.18-1.63-0.24c-0.41-0.06-4.21-0.63-8.44-1.26
		c-4.23-0.63-8.48-1.26-9.43-1.41c-2.32-0.35-5.25-0.79-12.55-1.88c-3.34-0.5-6.18-0.93-6.3-0.95c-0.22-0.04-0.27-0.09-1.92-1.74
		c-1.56-1.56-1.69-1.71-1.71-1.87c-0.04-0.3,0.05-0.36,1.36-0.9c0.65-0.27,2.39-0.99,3.87-1.6c1.48-0.61,4.14-1.71,5.9-2.44
		c3.48-1.45,3.29-1.37,5.58-2.31c0.87-0.36,1.57-0.66,1.56-0.67c-0.01-0.01-0.39,0.08-0.85,0.19c-0.71,0.17-5.35,1.27-8.21,1.95
		c-0.46,0.11-0.96,0.22-1.1,0.26s-0.48,0.12-0.75,0.18c-0.27,0.07-0.68,0.16-0.93,0.22c-0.84,0.2-1.72,0.41-2.14,0.51
		c-0.23,0.05-0.71,0.16-1.06,0.25c-0.99,0.24-1.37,0.33-1.66,0.39c-0.45,0.1-1.04,0.24-1.59,0.38c-0.78,0.19-1.41,0.34-1.86,0.44
		c-0.22,0.05-0.52,0.12-0.68,0.16c-0.15,0.04-0.34,0.06-0.42,0.04c-0.11-0.02-0.47-0.36-1.86-1.74c-1.63-1.64-1.71-1.72-1.71-1.88
		c0-0.27,0.15-0.38,0.99-0.73c0.42-0.17,2.27-0.94,4.13-1.71c4.57-1.9,5.09-2.11,5.81-2.41c0.34-0.14,1.66-0.69,2.94-1.21
		c1.28-0.53,2.53-1.05,2.78-1.15c0.41-0.17,2.83-1.17,4.37-1.81c0.51-0.21,2.39-0.99,6.92-2.87c0.97-0.4,1.81-0.73,1.86-0.73
		c0.05,0,0.77,0.28,1.59,0.62c0.83,0.34,2.2,0.91,3.05,1.26c1.56,0.65,3.54,1.47,5.43,2.25c2.72,1.13,3.14,1.3,3.71,1.54
		c0.34,0.14,0.75,0.31,0.91,0.38c0.16,0.07,0.3,0.13,0.32,0.13s0.45,0.18,0.96,0.39s2.17,0.91,3.68,1.53
		c2.38,0.98,2.76,1.15,2.89,1.29c0.13,0.14,0.14,0.18,0.12,0.32c-0.01,0.09-0.06,0.19-0.1,0.23c-0.08,0.07-0.63,0.33-3.26,1.53
		c-5.16,2.35-10.75,4.67-16.19,6.71c-0.38,0.14-0.7,0.27-0.72,0.3c-0.03,0.02,6.64,0.04,14.81,0.04h14.86l0.11,0.1
		c0.07,0.06,0.25,0.43,0.48,0.98c0.46,1.09,1.83,4.33,2.72,6.43c0.37,0.86,0.96,2.25,1.32,3.09c0.72,1.7,0.76,1.82,0.53,2.02
		c-0.1,0.09-0.17,0.11-0.34,0.1C83.86,17921.51,83.76,17921.5,83.75,17921.5z M84.07,17921.1c0-0.01-0.2-0.48-0.44-1.05
		c-0.61-1.43-4.4-10.38-4.52-10.69l-0.07-0.17H63.62c-13.96,0-15.43,0-15.49-0.07c-0.08-0.08-0.09-0.21-0.01-0.27
		c0.03-0.02,0.58-0.24,1.22-0.48c3.58-1.32,8.35-3.23,12.06-4.83c3.17-1.36,7.98-3.55,7.97-3.62c0-0.04-0.17-0.11-2.51-1.07
		c-0.75-0.31-2.36-0.97-3.56-1.47s-3.22-1.33-4.48-1.86s-4.18-1.73-6.47-2.68c-2.3-0.95-4.41-1.83-4.71-1.95l-0.53-0.22l-4.44,1.84
		c-4.08,1.69-8.04,3.33-10.58,4.38c-0.56,0.23-1.41,0.58-1.9,0.79c-0.49,0.2-1.34,0.56-1.9,0.79c-1.58,0.65-7.1,2.94-8.55,3.54
		c-0.72,0.3-1.47,0.61-1.67,0.69c-0.2,0.08-0.37,0.16-0.37,0.19c0,0.02,0.72,0.76,1.61,1.66l1.61,1.62l0.41-0.1
		c0.23-0.05,1.81-0.42,3.51-0.83c1.7-0.4,3.63-0.86,4.29-1.02c0.66-0.15,2.75-0.65,4.66-1.11c1.91-0.45,4.77-1.13,6.36-1.51
		c1.59-0.38,3.22-0.76,3.62-0.86c0.87-0.21,0.95-0.21,1.03-0.06c0.04,0.1,0.04,0.13-0.04,0.2c-0.04,0.04-0.92,0.42-1.94,0.84
		c-2.27,0.94-2.97,1.23-7.53,3.12c-3.93,1.62-4.67,1.94-6.76,2.8c-0.76,0.31-1.75,0.72-2.19,0.9c-0.44,0.18-1.07,0.45-1.41,0.59
		c-0.34,0.14-0.63,0.27-0.65,0.28c-0.02,0.02,0.7,0.76,1.59,1.65l1.63,1.63l1.28,0.19c1.22,0.19,2.37,0.36,8.88,1.33
		c7.96,1.19,9.35,1.4,9.59,1.44c0.15,0.02,1.67,0.25,3.38,0.5c3.65,0.54,3.42,0.51,20.88,3.12c1.63,0.25,5.06,0.76,7.62,1.14
		C83.59,17921.08,84.07,17921.15,84.07,17921.1z"/>
</g>
</svg>
